<svg xmlns="http://www.w3.org/2000/svg" width="180" height="180" viewBox="0 0 180 180">
  <!-- Orange background with rounded corners -->
  <rect width="180" height="180" rx="40" ry="40" fill="#EA5B0C"/>
  <!-- Headphones icon (from Lucide) - centered and scaled -->
  <g transform="translate(40, 40) scale(4.2)" fill="none" stroke="white" stroke-width="2" stroke-linecap="round" stroke-linejoin="round">
    <path d="M3 14h3a2 2 0 0 1 2 2v3a2 2 0 0 1-2 2H5a2 2 0 0 1-2-2v-7a7 7 0 1 1 14 0v7a2 2 0 0 1-2 2h-1a2 2 0 0 1-2-2v-3a2 2 0 0 1 2-2h3"/>
  </g>
</svg>
